<mxfile host="Electron" modified="2024-02-05T00:55:04.833Z" agent="Mozilla/5.0 (X11; Linux x86_64) AppleWebKit/537.36 (KHTML, like Gecko) draw.io/23.0.2 Chrome/120.0.6099.109 Electron/28.2.0 Safari/537.36" etag="5_qP-CoXkGELO0w8wIuL" version="23.0.2" type="device">
  <diagram name="Page-1" id="msqjQD5EW5xsd1GT00Ly">
    <mxGraphModel dx="988" dy="603" grid="1" gridSize="10" guides="1" tooltips="1" connect="1" arrows="1" fold="1" page="1" pageScale="1" pageWidth="850" pageHeight="1100" math="0" shadow="0">
      <root>
        <mxCell id="0" />
        <mxCell id="1" parent="0" />
        <mxCell id="bSWF4oOUkGgmCG99WGxA-21" value="" style="rounded=0;whiteSpace=wrap;html=1;shadow=1;strokeColor=#000000;strokeWidth=1;" parent="1" vertex="1">
          <mxGeometry x="44" y="510" width="426" height="265" as="geometry" />
        </mxCell>
        <mxCell id="VyW8sIyEXpnRJgTxbpBJ-48" style="edgeStyle=orthogonalEdgeStyle;rounded=1;orthogonalLoop=1;jettySize=auto;html=1;exitX=1;exitY=0.5;exitDx=0;exitDy=0;entryX=0;entryY=0.5;entryDx=0;entryDy=0;curved=0;strokeColor=#000000;strokeWidth=1;" parent="1" source="bSWF4oOUkGgmCG99WGxA-22" target="VyW8sIyEXpnRJgTxbpBJ-41" edge="1">
          <mxGeometry relative="1" as="geometry" />
        </mxCell>
        <mxCell id="bSWF4oOUkGgmCG99WGxA-22" value="&lt;font color=&quot;#000000&quot; face=&quot;Comic Neue&quot;&gt;MIMIC-IV&lt;/font&gt;" style="shape=datastore;whiteSpace=wrap;html=1;shadow=1;fontStyle=0;strokeWidth=0.5;fillColor=#cce5ff;strokeColor=#000000;" parent="1" vertex="1">
          <mxGeometry x="57.559999999999995" y="634.4200000000001" width="80" height="100" as="geometry" />
        </mxCell>
        <mxCell id="VyW8sIyEXpnRJgTxbpBJ-49" style="edgeStyle=orthogonalEdgeStyle;rounded=1;orthogonalLoop=1;jettySize=auto;html=1;exitX=1;exitY=0.5;exitDx=0;exitDy=0;entryX=0;entryY=0.5;entryDx=0;entryDy=0;curved=0;strokeColor=#000000;strokeWidth=1;" parent="1" source="bSWF4oOUkGgmCG99WGxA-24" target="VyW8sIyEXpnRJgTxbpBJ-41" edge="1">
          <mxGeometry relative="1" as="geometry" />
        </mxCell>
        <mxCell id="bSWF4oOUkGgmCG99WGxA-24" value="&lt;font color=&quot;#000000&quot; data-font-src=&quot;https://fonts.googleapis.com/css?family=Comic+Neue&quot; face=&quot;Comic Neue&quot;&gt;ORDO&lt;br&gt;Ontology&lt;/font&gt;" style="shape=datastore;whiteSpace=wrap;html=1;shadow=1;fillColor=#cce5ff;strokeColor=#000000;strokeWidth=0.5;" parent="1" vertex="1">
          <mxGeometry x="57.559999999999995" y="520.6700000000002" width="80" height="97.5" as="geometry" />
        </mxCell>
        <mxCell id="5rCoUwJIOFsVF5jnwrq--2" value="&lt;font style=&quot;font-size: 11px;&quot; face=&quot;Comic Neue&quot;&gt;Step 1: Pipeline for Obtaining a Rare Disease Dataset&lt;/font&gt;" style="rounded=0;whiteSpace=wrap;html=1;strokeWidth=0.5;shadow=1;strokeColor=#000000;" parent="1" vertex="1">
          <mxGeometry x="122" y="744.73" width="267" height="22.5" as="geometry" />
        </mxCell>
        <mxCell id="MoTE3uBldBmtAwGVsBTm-199" value="" style="rounded=0;whiteSpace=wrap;html=1;shadow=1;strokeColor=#000000;strokeWidth=1;" parent="1" vertex="1">
          <mxGeometry x="490" y="510" width="261" height="265" as="geometry" />
        </mxCell>
        <mxCell id="MoTE3uBldBmtAwGVsBTm-200" value="&lt;font face=&quot;Comic Neue&quot; style=&quot;font-size: 14px;&quot;&gt;&lt;br&gt;&lt;/font&gt;" style="rounded=0;whiteSpace=wrap;html=1;shadow=0;strokeWidth=0.5;fillColor=#cce5ff;strokeColor=#000000;" parent="1" vertex="1">
          <mxGeometry x="627.4300000000001" y="566.33" width="25" height="156.3" as="geometry" />
        </mxCell>
        <mxCell id="MoTE3uBldBmtAwGVsBTm-201" value="&lt;font style=&quot;font-size: 10px;&quot; face=&quot;Comic Neue&quot;&gt;Label 0&lt;/font&gt;" style="rounded=0;whiteSpace=wrap;html=1;shadow=0;fillColor=none;strokeColor=none;strokeWidth=1;" parent="1" vertex="1">
          <mxGeometry x="516.55" y="722.6300000000001" width="57.5" height="18.12" as="geometry" />
        </mxCell>
        <mxCell id="MoTE3uBldBmtAwGVsBTm-203" value="&lt;font face=&quot;Comic Neue&quot; style=&quot;font-size: 14px;&quot;&gt;&lt;br&gt;&lt;/font&gt;" style="rounded=0;whiteSpace=wrap;html=1;fillColor=#FFC2C2;strokeColor=#000000;shadow=0;strokeWidth=0.5;" parent="1" vertex="1">
          <mxGeometry x="579.05" y="656.33" width="25" height="66.3" as="geometry" />
        </mxCell>
        <mxCell id="MoTE3uBldBmtAwGVsBTm-204" value="&lt;font face=&quot;Comic Neue&quot; style=&quot;font-size: 14px;&quot;&gt;&lt;br&gt;&lt;/font&gt;" style="rounded=0;whiteSpace=wrap;html=1;fillColor=#DCEBC3;strokeColor=#000000;shadow=0;strokeWidth=0.5;" parent="1" vertex="1">
          <mxGeometry x="532.8" y="606.33" width="25" height="116.3" as="geometry" />
        </mxCell>
        <mxCell id="MoTE3uBldBmtAwGVsBTm-205" value="&lt;font face=&quot;Comic Neue&quot; style=&quot;font-size: 14px;&quot;&gt;&lt;br&gt;&lt;/font&gt;" style="rounded=0;whiteSpace=wrap;html=1;fillColor=#FFFCD6;strokeColor=#000000;shadow=0;strokeWidth=0.5;" parent="1" vertex="1">
          <mxGeometry x="674.6800000000001" y="656.33" width="25" height="66.3" as="geometry" />
        </mxCell>
        <mxCell id="MoTE3uBldBmtAwGVsBTm-206" value="" style="endArrow=none;html=1;rounded=0;strokeColor=#000000;strokeWidth=1;" parent="1" edge="1">
          <mxGeometry width="50" height="50" relative="1" as="geometry">
            <mxPoint x="515.55" y="722.5" as="sourcePoint" />
            <mxPoint x="715.55" y="722.5" as="targetPoint" />
          </mxGeometry>
        </mxCell>
        <mxCell id="MoTE3uBldBmtAwGVsBTm-207" value="&lt;font style=&quot;font-size: 10px;&quot; face=&quot;Comic Neue&quot;&gt;Label 1&lt;/font&gt;" style="rounded=0;whiteSpace=wrap;html=1;shadow=0;fillColor=none;strokeColor=none;strokeWidth=1;" parent="1" vertex="1">
          <mxGeometry x="562.8" y="722.6300000000001" width="57.5" height="18.12" as="geometry" />
        </mxCell>
        <mxCell id="MoTE3uBldBmtAwGVsBTm-208" value="&lt;font style=&quot;font-size: 10px;&quot; face=&quot;Comic Neue&quot;&gt;Label 2&lt;/font&gt;" style="rounded=0;whiteSpace=wrap;html=1;shadow=0;fillColor=none;strokeColor=none;strokeWidth=1;" parent="1" vertex="1">
          <mxGeometry x="611.1800000000001" y="722.6300000000001" width="57.5" height="18.12" as="geometry" />
        </mxCell>
        <mxCell id="MoTE3uBldBmtAwGVsBTm-209" value="&lt;font style=&quot;font-size: 10px;&quot; face=&quot;Comic Neue&quot;&gt;Label 3&lt;/font&gt;" style="rounded=0;whiteSpace=wrap;html=1;shadow=0;fillColor=none;strokeColor=none;strokeWidth=1;" parent="1" vertex="1">
          <mxGeometry x="658.4300000000001" y="722.6300000000001" width="57.5" height="18.12" as="geometry" />
        </mxCell>
        <mxCell id="VyW8sIyEXpnRJgTxbpBJ-4" value="&lt;font face=&quot;Comic Neue&quot;&gt;&lt;font color=&quot;#000000&quot;&gt;Final Subset&lt;/font&gt;&lt;br&gt;&lt;/font&gt;" style="shape=datastore;whiteSpace=wrap;html=1;shadow=1;strokeWidth=0.5;fillColor=#cce5ff;strokeColor=#000000;" parent="1" vertex="1">
          <mxGeometry x="353.43" y="598.87" width="100" height="57.35" as="geometry" />
        </mxCell>
        <mxCell id="VyW8sIyEXpnRJgTxbpBJ-20" value="&lt;font style=&quot;font-size: 11px;&quot; face=&quot;Comic Neue&quot;&gt;Step 2: Voting via JSON-Augmented Prompting&lt;/font&gt;" style="rounded=0;whiteSpace=wrap;html=1;strokeWidth=0.5;shadow=1;strokeColor=#000000;" parent="1" vertex="1">
          <mxGeometry x="499.27" y="744.73" width="238.94" height="22.5" as="geometry" />
        </mxCell>
        <mxCell id="VyW8sIyEXpnRJgTxbpBJ-50" style="edgeStyle=orthogonalEdgeStyle;rounded=0;orthogonalLoop=1;jettySize=auto;html=1;exitX=1;exitY=0.5;exitDx=0;exitDy=0;entryX=0;entryY=0.5;entryDx=0;entryDy=0;strokeColor=#000000;strokeWidth=1;" parent="1" source="VyW8sIyEXpnRJgTxbpBJ-41" target="VyW8sIyEXpnRJgTxbpBJ-4" edge="1">
          <mxGeometry relative="1" as="geometry" />
        </mxCell>
        <mxCell id="VyW8sIyEXpnRJgTxbpBJ-41" value="&lt;font style=&quot;font-size: 12px;&quot; face=&quot;Comic Neue&quot;&gt;&lt;br&gt;&lt;/font&gt;" style="rounded=1;whiteSpace=wrap;html=1;strokeWidth=0.5;shadow=1;strokeColor=#000000;" parent="1" vertex="1">
          <mxGeometry x="188.81" y="527.5500000000001" width="130" height="200" as="geometry" />
        </mxCell>
        <mxCell id="VyW8sIyEXpnRJgTxbpBJ-42" value="" style="rounded=1;whiteSpace=wrap;html=1;strokeWidth=0.5;glass=0;shadow=1;strokeColor=#000000;" parent="1" vertex="1">
          <mxGeometry x="198.56" y="632.57" width="110.5" height="80" as="geometry" />
        </mxCell>
        <mxCell id="VyW8sIyEXpnRJgTxbpBJ-43" value="&lt;font data-font-src=&quot;https://fonts.googleapis.com/css?family=Comic+Neue&quot; face=&quot;Comic Neue&quot;&gt;&lt;br&gt;A&lt;/font&gt;" style="shape=actor;whiteSpace=wrap;html=1;fillColor=#eeeeee;strokeColor=#000000;strokeWidth=1;" parent="1" vertex="1">
          <mxGeometry x="218.8099999999999" y="641.14" width="30" height="45" as="geometry" />
        </mxCell>
        <mxCell id="VyW8sIyEXpnRJgTxbpBJ-44" value="&lt;font data-font-src=&quot;https://fonts.googleapis.com/css?family=Comic+Neue&quot; face=&quot;Comic Neue&quot;&gt;&lt;br&gt;B&lt;/font&gt;" style="shape=actor;whiteSpace=wrap;html=1;fillColor=#eeeeee;strokeColor=#000000;strokeWidth=1;" parent="1" vertex="1">
          <mxGeometry x="258.8099999999999" y="641.14" width="30" height="45" as="geometry" />
        </mxCell>
        <mxCell id="VyW8sIyEXpnRJgTxbpBJ-45" value="Two Annotators" style="text;html=1;strokeColor=none;fillColor=none;align=center;verticalAlign=middle;whiteSpace=wrap;rounded=0;fontFamily=Comic Neue;fontSource=https%3A%2F%2Ffonts.googleapis.com%2Fcss%3Ffamily%3DComic%2BNeue;strokeWidth=1;" parent="1" vertex="1">
          <mxGeometry x="206.3099999999999" y="684.57" width="95" height="30" as="geometry" />
        </mxCell>
        <mxCell id="VyW8sIyEXpnRJgTxbpBJ-46" style="edgeStyle=orthogonalEdgeStyle;rounded=0;orthogonalLoop=1;jettySize=auto;html=1;exitX=0.5;exitY=1;exitDx=0;exitDy=0;entryX=0.5;entryY=0;entryDx=0;entryDy=0;strokeColor=#000000;strokeWidth=1;" parent="1" source="VyW8sIyEXpnRJgTxbpBJ-47" target="VyW8sIyEXpnRJgTxbpBJ-42" edge="1">
          <mxGeometry relative="1" as="geometry" />
        </mxCell>
        <mxCell id="VyW8sIyEXpnRJgTxbpBJ-47" value="&lt;font style=&quot;font-size: 12px;&quot; face=&quot;Comic Neue&quot;&gt;Parallel Term Matching&lt;br&gt;&lt;/font&gt;" style="rounded=1;whiteSpace=wrap;html=1;strokeWidth=0.5;shadow=1;strokeColor=#000000;" parent="1" vertex="1">
          <mxGeometry x="200.69" y="540.5200000000001" width="108.37" height="64.09" as="geometry" />
        </mxCell>
        <mxCell id="VyW8sIyEXpnRJgTxbpBJ-52" value="" style="endArrow=none;html=1;rounded=0;strokeColor=#000000;entryX=0;entryY=0;entryDx=0;entryDy=0;strokeWidth=1;" parent="1" edge="1">
          <mxGeometry width="50" height="50" relative="1" as="geometry">
            <mxPoint x="515.74" y="531.69" as="sourcePoint" />
            <mxPoint x="515.5500000000002" y="722.6300000000001" as="targetPoint" />
          </mxGeometry>
        </mxCell>
        <mxCell id="VyW8sIyEXpnRJgTxbpBJ-53" value="" style="endArrow=classic;html=1;rounded=0;entryX=0.935;entryY=0.094;entryDx=0;entryDy=0;entryPerimeter=0;strokeWidth=1;strokeColor=#000000;" parent="1" edge="1">
          <mxGeometry width="50" height="50" relative="1" as="geometry">
            <mxPoint x="668.6800000000001" y="543.6600000000001" as="sourcePoint" />
            <mxPoint x="643.3749999999999" y="559.01836" as="targetPoint" />
          </mxGeometry>
        </mxCell>
        <mxCell id="VyW8sIyEXpnRJgTxbpBJ-56" value="&lt;font face=&quot;Comic Neue&quot;&gt;Winner&lt;/font&gt;" style="ellipse;shape=cloud;whiteSpace=wrap;html=1;fillColor=#f9f7ed;strokeColor=#000000;strokeWidth=0.5;shadow=1;" parent="1" vertex="1">
          <mxGeometry x="671.62" y="514.33" width="70.12" height="40" as="geometry" />
        </mxCell>
      </root>
    </mxGraphModel>
  </diagram>
</mxfile>
